<svg width="158" height="40" fill="none" xmlns="http://www.w3.org/2000/svg"><path d="M122.091 10.711h-8.524c-.501 0-1.003.483-1.253.965l-3.51 21.232c0 .483.251.724.752.724h4.513c.501 0 .752-.241.752-.724l1.003-6.032c0-.482.501-.965 1.253-.965h2.758c5.766 0 9.025-2.654 9.777-7.962.501-2.171 0-4.101-1.003-5.308-1.504-1.206-3.76-1.93-6.518-1.93zm1.003 7.962c-.502 2.895-2.758 2.895-5.014 2.895h-1.504l1.002-5.549c0-.241.251-.482.753-.482h.501c1.504 0 3.008 0 3.76.965.502.241.502.965.502 2.171z" fill="#139AD6"/><path d="M60.67 10.711h-8.524c-.502 0-1.003.483-1.254.965l-3.51 21.232c0 .483.251.724.752.724h4.012c.501 0 1.002-.483 1.253-.965l1.003-5.79c0-.483.501-.966 1.253-.966h2.758c5.766 0 9.025-2.654 9.778-7.962.5-2.171 0-4.101-1.003-5.308-1.505-1.206-3.51-1.93-6.519-1.93zm1.002 7.962c-.501 2.895-2.758 2.895-5.014 2.895h-1.253l1.002-5.549c0-.241.251-.482.753-.482h.501c1.504 0 3.008 0 3.76.965.251.241.502.965.251 2.171zm24.82-.241H82.48c-.25 0-.752.241-.752.482l-.25 1.207-.251-.483c-1.003-1.206-2.758-1.689-4.764-1.689-4.512 0-8.523 3.378-9.275 7.962-.502 2.413.25 4.584 1.504 6.032 1.253 1.448 3.008 1.93 5.265 1.93 3.76 0 5.766-2.171 5.766-2.171l-.251 1.206c0 .483.25.724.752.724h3.76c.502 0 1.003-.483 1.254-.965l2.256-13.511c-.25-.242-.752-.724-1.002-.724zm-5.767 7.72c-.501 2.172-2.256 3.86-4.763 3.86-1.253 0-2.256-.482-2.758-.964-.501-.724-.752-1.69-.752-2.895.251-2.172 2.257-3.86 4.513-3.86 1.253 0 2.005.482 2.758.964.752.724 1.002 1.93 1.002 2.895z" fill="#263B80"/><path d="M147.662 18.432h-4.011c-.251 0-.752.241-.752.482l-.251 1.207-.25-.483c-1.003-1.206-2.758-1.689-4.764-1.689-4.512 0-8.523 3.378-9.276 7.962-.501 2.413.251 4.584 1.505 6.032 1.253 1.448 3.008 1.93 5.264 1.93 3.761 0 5.766-2.171 5.766-2.171l-.25 1.206c0 .483.25.724.752.724h3.76c.502 0 1.003-.483 1.254-.965l2.256-13.511c-.25-.242-.501-.724-1.003-.724zm-5.766 7.72c-.501 2.172-2.256 3.86-4.763 3.86-1.254 0-2.256-.482-2.758-.964-.501-.724-.752-1.69-.752-2.895.251-2.172 2.256-3.86 4.513-3.86 1.253 0 2.005.482 2.757.964 1.003.724 1.254 1.93 1.003 2.895z" fill="#139AD6"/><path d="M108.302 18.432h-4.261c-.502 0-.753.241-1.003.482l-5.516 8.203-2.507-7.72c-.25-.483-.501-.724-1.253-.724H89.75c-.502 0-.752.483-.752.965l4.512 12.787-4.262 5.79c-.25.483 0 1.207.502 1.207h4.01c.502 0 .753-.241 1.004-.482l13.788-19.06c.752-.724.251-1.448-.251-1.448z" fill="#263B80"/><path d="M152.426 11.435l-3.51 21.714c0 .483.251.724.752.724h3.51c.501 0 1.003-.482 1.253-.965l3.51-21.232c0-.482-.25-.723-.752-.723h-4.011c-.251-.242-.501 0-.752.482z" fill="#139AD6"/><path d="M28.83 3.473C27.076 1.543 23.818.578 19.305.578H6.769c-.752 0-1.504.724-1.755 1.448L0 33.632c0 .724.501 1.206 1.003 1.206h7.772l2.005-11.822v.483c.25-.724 1.003-1.448 1.755-1.448h3.76c7.27 0 12.786-2.895 14.541-10.857v-.724c-.25 0-.25 0 0 0 .25-3.137-.25-5.067-2.005-6.997z" fill="#263B80"/><path d="M30.585 10.47v.724c-1.754 8.203-7.27 10.857-14.54 10.857h-3.76c-.753 0-1.505.724-1.755 1.448L8.021 38.215c0 .483.251.965 1.003.965h6.518c.753 0 1.505-.482 1.505-1.206v-.242l1.253-7.479v-.483c0-.723.752-1.206 1.504-1.206h1.003c6.268 0 11.282-2.413 12.535-9.65.502-2.896.25-5.55-1.253-7.239-.251-.482-.752-.965-1.505-1.206z" fill="#139AD6"/><path d="M28.83 9.746c-.25 0-.501-.241-.752-.241-.25 0-.501 0-.752-.241-1.003-.242-2.005-.242-3.259-.242H14.29c-.25 0-.502 0-.752.242a1.32 1.32 0 00-.752 1.206L10.78 23.016v.483c.25-.724 1.003-1.448 1.755-1.448h3.76c7.27 0 12.786-2.895 14.541-10.857 0-.242 0-.483.25-.724-.5-.241-.751-.483-1.253-.483-.752-.24-.752-.24-1.003-.24z" fill="#232C65"/></svg>