<svg xmlns="http://www.w3.org/2000/svg"><symbol viewBox="0 0 44 44" id="arrow-prev"><circle cx="22" cy="22" r="21.5" stroke="#1362E1"/><g clip-path="url(#clip0_27_348)"><path d="M19.062 20.8H28.8v1.6h-9.738l4.292 4.291-1.132 1.131L16 21.6l6.222-6.222 1.132 1.13-4.292 4.292z" fill="#1362E1"/></g><defs><clipPath id="clip0_27_348"><path fill="#fff" transform="translate(12.8 12)" d="M0 0h19.2v19.2H0z"/></clipPath></defs></symbol><symbol viewBox="0 0 44 44" id="arrow-next"><circle r="21.5" transform="matrix(-1 0 0 1 22 22)" stroke="#1362E1"/><g clip-path="url(#clip0_27_349)"><path d="M24.938 20.8H15.2v1.6h9.738l-4.292 4.291 1.132 1.131L28 21.6l-6.222-6.222-1.132 1.13 4.292 4.292z" fill="#1362E1"/></g><defs><clipPath id="clip0_27_349"><path fill="#fff" transform="matrix(-1 0 0 1 31.2 12)" d="M0 0h19.2v19.2H0z"/></clipPath></defs></symbol><symbol viewBox="0 0 14 13" id="follow-arrow"><path d="M11.004 3.414l-8.607 8.607-1.414-1.414L9.589 2H2.004V0h11v11h-2V3.414z" fill="#1362E1"/></symbol></svg>