<svg width="195" height="43" fill="none" xmlns="http://www.w3.org/2000/svg"><path d="M79.467 7.414c.898 1.489 1.303 3.02 1.303 4.957 0 6.175-5.252 14.197-9.514 19.83h-9.75L57.614 8.766l8.524-.812 2.065 16.676c1.93-3.154 4.31-8.11 4.31-11.491 0-1.85-.317-3.11-.81-4.148l7.764-1.577zm11.05 10.32c1.569 0 5.518-.72 5.518-2.973 0-1.082-.763-1.622-1.66-1.622-1.573 0-3.635 1.892-3.86 4.596l.002-.001zm-.18 4.448c0 2.75 1.524 3.83 3.545 3.83 2.216 0 4.306-.54 7.047-1.936l-1.031 7.028c-1.93.946-4.934 1.578-7.855 1.578-7.386 0-10.053-4.508-10.053-10.14 0-7.3 4.31-15.054 13.195-15.054 4.875 0 7.627 2.75 7.627 6.583 0 6.176-7.896 8.067-12.474 8.111h-.001zm37.079-9.267c0 .901-.136 2.224-.271 3.063L124.584 32.2h-8.302l2.334-14.873.181-1.666c0-1.082-.674-1.352-1.484-1.352-1.075 0-2.154.495-2.871.857l-2.648 17.051h-8.346l3.814-24.292h7.239l.091 1.94c1.705-1.127 3.949-2.343 7.135-2.343 4.22 0 5.703 2.165 5.703 5.412l-.014-.02zm24.641-2.752c2.364-1.711 4.624-2.659 7.718-2.659 4.262 0 5.761 2.165 5.761 5.412 0 .902-.136 2.224-.272 3.064l-2.556 16.22h-8.333l2.364-15.188.136-1.216c0-1.219-.674-1.488-1.483-1.488-1.032 0-2.063.45-2.828.857l-2.659 17.051h-8.302l2.363-15.188.148-1.215c0-1.22-.674-1.489-1.48-1.489-1.079 0-2.154.495-2.872.857l-2.649 17.052h-8.346l3.811-24.292h7.135l.225 2.028c1.66-1.216 3.903-2.432 6.909-2.432 2.603-.001 4.308 1.127 5.162 2.659l.048-.034zm29.983 7.076c0-1.983-.493-3.337-1.974-3.337-3.276 0-3.948 5.813-3.948 8.787 0 2.257.629 3.652 2.108 3.652 3.096 0 3.814-6.131 3.814-9.104v.002zm-14.359 5.093c0-7.662 4.037-14.828 13.328-14.828 7.002 0 9.558 4.148 9.558 9.873 0 7.572-3.995 15.413-13.508 15.413-7.047 0-9.381-4.641-9.381-10.457l.003-.001z" fill="#3D95CE"/><g clip-path="url(#clip0_27_390)"><path d="M37.776 0H5.065C2.267 0 0 2.276 0 5.083v32.834C0 40.724 2.267 43 5.065 43h32.711c2.797 0 5.065-2.276 5.065-5.083V5.083C42.84 2.276 40.573 0 37.776 0z" fill="#3396CD"/><path d="M31.978 8.75c.922 1.525 1.335 3.098 1.335 5.083 0 6.334-5.386 14.559-9.757 20.334h-9.981l-4.002-24.03 8.742-.833 2.126 17.098c1.976-3.235 4.42-8.319 4.42-11.782 0-1.897-.325-3.188-.831-4.25l7.948-1.62z" fill="#fff"/></g><defs><clipPath id="clip0_27_390"><path fill="#fff" d="M0 0h42.841v43H0z"/></clipPath></defs></svg>