<svg width="158" height="40" viewBox="0 0 158 40" fill="none" xmlns="http://www.w3.org/2000/svg">
<path d="M122.091 10.7112H113.567C113.066 10.7112 112.564 11.1938 112.314 11.6763L108.804 32.9081C108.804 33.3906 109.055 33.6319 109.556 33.6319H114.069C114.57 33.6319 114.821 33.3906 114.821 32.9081L115.824 26.8763C115.824 26.3938 116.325 25.9112 117.077 25.9112H119.835C125.601 25.9112 128.86 23.2573 129.612 17.9493C130.113 15.7779 129.612 13.8478 128.609 12.6414C127.105 11.4351 124.849 10.7112 122.091 10.7112ZM123.094 18.6731C122.592 21.5684 120.336 21.5684 118.08 21.5684H116.576L117.578 16.0192C117.578 15.7779 117.829 15.5366 118.331 15.5366H118.832C120.336 15.5366 121.84 15.5366 122.592 16.5017C123.094 16.743 123.094 17.4668 123.094 18.6731Z" fill="#139AD6"/>
<path d="M60.6694 10.7112H52.1456C51.6442 10.7112 51.1428 11.1938 50.8921 11.6763L47.3823 32.9081C47.3823 33.3906 47.633 33.6319 48.1344 33.6319H52.1456C52.647 33.6319 53.1484 33.1493 53.3991 32.6668L54.4019 26.8763C54.4019 26.3938 54.9033 25.9112 55.6554 25.9112H58.4131C64.1793 25.9112 67.4384 23.2573 68.1905 17.9493C68.6919 15.7779 68.1905 13.8478 67.1877 12.6414C65.6835 11.4351 63.6779 10.7112 60.6694 10.7112ZM61.6722 18.6731C61.1708 21.5684 58.9145 21.5684 56.6582 21.5684H55.4047L56.4075 16.0192C56.4075 15.7779 56.6582 15.5366 57.1596 15.5366H57.661C59.1652 15.5366 60.6694 15.5366 61.4215 16.5017C61.6722 16.743 61.9229 17.4668 61.6722 18.6731Z" fill="#263B80"/>
<path d="M86.4915 18.4319H82.4803C82.2296 18.4319 81.7282 18.6731 81.7282 18.9144L81.4775 20.1208L81.2268 19.6382C80.224 18.4319 78.4691 17.9493 76.4635 17.9493C71.9509 17.9493 67.9397 21.3271 67.1876 25.9112C66.6862 28.3239 67.4383 30.4954 68.6918 31.943C69.9453 33.3906 71.7002 33.8731 73.9565 33.8731C77.717 33.8731 79.7226 31.7017 79.7226 31.7017L79.4719 32.9081C79.4719 33.3906 79.7226 33.6319 80.224 33.6319H83.9845C84.4859 33.6319 84.9873 33.1493 85.238 32.6668L87.4943 19.1557C87.2436 18.9144 86.7422 18.4319 86.4915 18.4319ZM80.7254 26.1525C80.224 28.3239 78.4691 30.0128 75.9621 30.0128C74.7086 30.0128 73.7058 29.5303 73.2044 29.0478C72.703 28.3239 72.4523 27.3589 72.4523 26.1525C72.703 23.9811 74.7086 22.2922 76.9649 22.2922C78.2184 22.2922 78.9705 22.7747 79.7226 23.2573C80.4747 23.9811 80.7254 25.1874 80.7254 26.1525Z" fill="#263B80"/>
<path d="M147.662 18.4318H143.651C143.4 18.4318 142.899 18.6731 142.899 18.9144L142.648 20.1207L142.398 19.6382C141.395 18.4318 139.64 17.9493 137.634 17.9493C133.122 17.9493 129.111 21.3271 128.358 25.9112C127.857 28.3239 128.609 30.4953 129.863 31.9429C131.116 33.3905 132.871 33.8731 135.127 33.8731C138.888 33.8731 140.893 31.7017 140.893 31.7017L140.643 32.908C140.643 33.3905 140.893 33.6318 141.395 33.6318H145.155C145.657 33.6318 146.158 33.1493 146.409 32.6667L148.665 19.1556C148.415 18.9144 148.164 18.4318 147.662 18.4318ZM141.896 26.1525C141.395 28.3239 139.64 30.0128 137.133 30.0128C135.879 30.0128 134.877 29.5302 134.375 29.0477C133.874 28.3239 133.623 27.3588 133.623 26.1525C133.874 23.981 135.879 22.2921 138.136 22.2921C139.389 22.2921 140.141 22.7747 140.893 23.2572C141.896 23.981 142.147 25.1874 141.896 26.1525Z" fill="#139AD6"/>
<path d="M108.302 18.4318H104.041C103.539 18.4318 103.288 18.6731 103.038 18.9144L97.5223 27.1175L95.0153 19.3969C94.7646 18.9144 94.5139 18.6731 93.7618 18.6731H89.7506C89.2492 18.6731 88.9985 19.1556 88.9985 19.6382L93.5111 32.4255L89.2492 38.2159C88.9985 38.6985 89.2492 39.4223 89.7506 39.4223H93.7618C94.2632 39.4223 94.5139 39.181 94.7646 38.9397L108.553 19.8794C109.305 19.1556 108.804 18.4318 108.302 18.4318Z" fill="#263B80"/>
<path d="M152.426 11.435L148.916 33.1493C148.916 33.6319 149.167 33.8731 149.668 33.8731H153.178C153.679 33.8731 154.181 33.3906 154.431 32.908L157.941 11.6763C157.941 11.1938 157.691 10.9525 157.189 10.9525H153.178C152.927 10.7112 152.677 10.9525 152.426 11.435Z" fill="#139AD6"/>
<path d="M28.8305 3.47312C27.0756 1.54296 23.8165 0.577881 19.3039 0.577881H6.76891C6.01681 0.577881 5.26471 1.30169 5.01401 2.0255L0 33.6319C0 34.3557 0.501401 34.8382 1.0028 34.8382H8.77451L10.7801 23.016V23.4985C11.0308 22.7747 11.7829 22.0509 12.535 22.0509H16.2955C23.5658 22.0509 29.0812 19.1557 30.8361 11.1938C30.8361 10.9525 30.8361 10.7112 30.8361 10.4699C30.5854 10.4699 30.5854 10.4699 30.8361 10.4699C31.0868 7.33344 30.5854 5.40328 28.8305 3.47312Z" fill="#263B80"/>
<path d="M30.5855 10.4699C30.5855 10.7112 30.5855 10.9525 30.5855 11.1937C28.8306 19.3969 23.3152 22.0509 16.0449 22.0509H12.2844C11.5323 22.0509 10.7802 22.7747 10.5295 23.4985L8.02246 38.216C8.02246 38.6985 8.27316 39.181 9.02526 39.181H15.5435C16.2956 39.181 17.0477 38.6985 17.0477 37.9747V37.7334L18.3012 30.2541V29.7715C18.3012 29.0477 19.0533 28.5652 19.8054 28.5652H20.8082C27.0757 28.5652 32.0897 26.1525 33.3432 18.9144C33.8446 16.0191 33.5939 13.3652 32.0897 11.6763C31.839 11.1937 31.3376 10.7112 30.5855 10.4699Z" fill="#139AD6"/>
<path d="M28.8304 9.74615C28.5797 9.74615 28.329 9.50488 28.0783 9.50488C27.8276 9.50488 27.5769 9.50487 27.3262 9.26361C26.3234 9.02234 25.3206 9.02234 24.0671 9.02234H14.2898C14.0391 9.02234 13.7884 9.02234 13.5377 9.26361C13.0363 9.50487 12.7856 9.98741 12.7856 10.47L10.78 23.016V23.4985C11.0307 22.7747 11.7828 22.0509 12.5349 22.0509H16.2954C23.5657 22.0509 29.0811 19.1557 30.836 11.1938C30.836 10.9525 30.836 10.7112 31.0867 10.47C30.5853 10.2287 30.3346 9.98742 29.8332 9.98742C29.0811 9.74615 29.0811 9.74615 28.8304 9.74615Z" fill="#232C65"/>
</svg>
