<svg xmlns="http://www.w3.org/2000/svg">
    <symbol viewBox="0 0 44 44" id="arrow-prev">
        <circle cx="22" cy="22" r="21.5" stroke="#1362E1"/>
        <g clip-path="url(#clip0_27_348)">
            <path d="M19.0624 20.8H28.8V22.4H19.0624L23.3536 26.6912L22.2224 27.8224L16 21.6L22.2224 15.3776L23.3536 16.5088L19.0624 20.8Z"
                  fill="#1362E1"/>
        </g>
        <defs>
            <clipPath id="clip0_27_348">
                <rect width="19.2" height="19.2" fill="white" transform="translate(12.8 12)"/>
            </clipPath>
        </defs>
    </symbol>
    <symbol viewBox="0 0 44 44" id="arrow-next">
        <circle r="21.5" transform="matrix(-1 0 0 1 22 22)" stroke="#1362E1"/>
        <g clip-path="url(#clip0_27_349)">
            <path d="M24.9376 20.8H15.2V22.4H24.9376L20.6464 26.6912L21.7776 27.8224L28 21.6L21.7776 15.3776L20.6464 16.5088L24.9376 20.8Z"
                  fill="#1362E1"/>
        </g>
        <defs>
            <clipPath id="clip0_27_349">
                <rect width="19.2" height="19.2" fill="white" transform="matrix(-1 0 0 1 31.2 12)"/>
            </clipPath>
        </defs>
    </symbol>

    <symbol viewBox="0 0 14 13" id="follow-arrow">
        <path d="M11.0039 3.414L2.39691 12.021L0.98291 10.607L9.58891 2H2.00391V0H13.0039V11H11.0039V3.414Z"
              fill="#1362E1"/>

    </symbol>
</svg>