<svg width="195" height="43" viewBox="0 0 195 43" fill="none" xmlns="http://www.w3.org/2000/svg">
<path d="M79.4671 7.41382C80.3652 8.90251 80.77 10.4342 80.77 12.3707C80.77 18.5464 75.5183 26.5681 71.2564 32.2011H61.5064L57.6138 8.7661L66.1376 7.95354L68.2029 24.6301C70.1322 21.4763 72.5121 16.5194 72.5121 13.1387C72.5121 11.2883 72.1959 10.0294 71.7025 8.99147L79.4671 7.41382ZM90.5171 17.7338C92.0859 17.7338 96.0347 17.0132 96.0347 14.7609C96.0347 13.6785 95.2724 13.1387 94.3742 13.1387C92.8024 13.1387 90.7401 15.0308 90.5156 17.7353L90.5171 17.7338ZM90.3368 22.1821C90.3368 24.9326 91.8614 26.0121 93.8823 26.0121C96.0982 26.0121 98.1885 25.4723 100.929 24.0756L99.8978 31.1039C97.9684 32.0499 94.9637 32.6815 92.0431 32.6815C84.6567 32.6815 81.9902 28.1739 81.9902 22.5424C81.9902 15.2413 86.2995 7.48796 95.1852 7.48796C100.06 7.48796 102.812 10.2385 102.812 14.0714C102.812 20.2471 94.9164 22.1376 90.3383 22.1821H90.3368ZM127.416 12.9149C127.416 13.8164 127.28 15.139 127.145 15.9782L124.584 32.1996H116.282L118.616 17.3275L118.797 15.6609C118.797 14.5785 118.123 14.3086 117.313 14.3086C116.238 14.3086 115.159 14.8039 114.442 15.1657L111.794 32.2174H103.448L107.262 7.92537H114.501L114.592 9.86482C116.297 8.73792 118.541 7.52206 121.727 7.52206C125.947 7.52206 127.43 9.68689 127.43 12.9341L127.416 12.9149ZM152.057 10.1629C154.421 8.45175 156.681 7.50427 159.775 7.50427C164.037 7.50427 165.536 9.66909 165.536 12.9163C165.536 13.8179 165.4 15.1405 165.264 15.9797L162.708 32.2011H154.375L156.739 17.0132L156.875 15.7973C156.875 14.5785 156.201 14.3086 155.392 14.3086C154.36 14.3086 153.329 14.7594 152.564 15.1657L149.905 32.2174H141.603L143.966 17.0295L144.114 15.8136C144.114 14.5948 143.44 14.325 142.634 14.325C141.555 14.325 140.48 14.8202 139.762 15.182L137.113 32.2337H128.767L132.578 7.94168H139.713L139.938 9.97009C141.598 8.75423 143.841 7.53837 146.847 7.53837C149.45 7.53689 151.155 8.66527 152.009 10.197L152.057 10.1629ZM182.04 17.2386C182.04 15.2561 181.547 13.9024 180.066 13.9024C176.79 13.9024 176.118 19.7148 176.118 22.6892C176.118 24.946 176.747 26.3412 178.226 26.3412C181.322 26.3412 182.04 20.21 182.04 17.2371V17.2386ZM167.681 22.3319C167.681 14.6704 171.718 7.50427 181.009 7.50427C188.011 7.50427 190.567 11.6515 190.567 17.3765C190.567 24.9489 186.572 32.7897 177.059 32.7897C170.012 32.7897 167.678 28.1487 167.678 22.3333L167.681 22.3319Z" fill="#3D95CE"/>
<g clip-path="url(#clip0_27_390)">
<path d="M37.7764 0H5.06452C2.26746 0 0 2.27589 0 5.08333V37.9167C0 40.7241 2.26746 43 5.06452 43H37.7764C40.5734 43 42.8409 40.7241 42.8409 37.9167V5.08333C42.8409 2.27589 40.5734 0 37.7764 0Z" fill="#3396CD"/>
<path d="M31.9779 8.75C32.8995 10.275 33.3129 11.8475 33.3129 13.8333C33.3129 20.1667 27.9271 28.3917 23.5558 34.1667H13.5746L9.57275 10.1375L18.3153 9.30417L20.4407 26.4017C22.4167 23.1667 24.8601 18.0833 24.8601 14.62C24.8601 12.7225 24.5363 11.4325 24.0299 10.37L31.9779 8.75Z" fill="white"/>
</g>
<defs>
<clipPath id="clip0_27_390">
<rect width="42.8409" height="43" fill="white"/>
</clipPath>
</defs>
</svg>
